<svg width="162" height="40" viewBox="0 0 162 40" fill="none" xmlns="http://www.w3.org/2000/svg">
<g clip-path="url(#clip0_80_344)">
<path d="M19.7565 7.58934H39.513V0.175995H19.7565C8.8452 0.175995 0 9.0266 0 19.9445C0 30.8624 8.8452 39.7143 19.7565 39.7143C29.3033 39.7143 37.2687 32.9372 39.1118 23.9294C39.1305 23.8371 39.1467 23.7448 39.1641 23.6524C39.3897 22.4572 39.513 21.2034 39.513 19.9458V16.2391H19.7565V23.6524H31.5377C29.9638 28.6654 25.2845 32.3009 19.7565 32.3009C12.9376 32.3009 7.40839 26.769 7.40839 19.9445C7.40839 13.12 12.9363 7.5881 19.7565 7.5881V7.58934Z" fill="#38D430"/>
<path d="M63.4601 7.62927L74.5409 7.58061V0.175995L63.4601 0.224646C52.5625 0.224646 43.7285 9.06528 43.7285 19.9695C43.7285 30.8737 52.5625 39.7143 63.4601 39.7143H74.5409V32.3097H63.4601C56.6486 32.3097 51.1282 26.7852 51.1282 19.9695C51.1282 13.1537 56.6499 7.62927 63.4601 7.62927Z" fill="#38D430"/>
<path d="M98.5143 0.175995C87.603 0.175995 78.7578 9.0266 78.7578 19.9458C78.7578 30.8649 87.603 39.7155 98.5143 39.7155C109.426 39.7155 118.271 30.8649 118.271 19.9458C118.271 9.0266 109.426 0.175995 98.5143 0.175995ZM98.5143 32.3009C91.6954 32.3009 86.1662 26.769 86.1662 19.9445C86.1662 13.12 91.6941 7.5881 98.5143 7.5881C105.335 7.5881 110.862 13.12 110.862 19.9445C110.862 26.769 105.335 32.3009 98.5143 32.3009Z" fill="#38D430"/>
<path d="M142.244 0.175995C131.333 0.175995 122.487 9.0266 122.487 19.9458C122.487 30.8649 131.333 39.7155 142.244 39.7155C153.155 39.7155 162 30.8649 162 19.9458C162 9.0266 153.155 0.175995 142.244 0.175995ZM142.244 32.3009C135.425 32.3009 129.896 26.769 129.896 19.9445C129.896 13.12 135.424 7.5881 142.244 7.5881C149.064 7.5881 154.592 13.12 154.592 19.9445C154.592 26.769 149.064 32.3009 142.244 32.3009Z" fill="#38D430"/>
</g>
<defs>
<clipPath id="clip0_80_344">
<rect width="162" height="40" fill="white"/>
</clipPath>
</defs>
</svg>
